<svg width="1350" height="1600" viewBox="0 0 1350 1600" fill="none" xmlns="http://www.w3.org/2000/svg">
<path d="M675 1.61273L1348.5 267.613V888.279C1348.5 1260.68 675 1597.61 675 1597.61C675 1597.61 1.5 1260.68 1.5 888.279V267.613L675 1.61273Z" fill="#10B981" stroke="#059669" stroke-width="3"/>
<path opacity="0.3" d="M675 161.613L1168.5 374.184V852.47C1168.5 1135.9 675 1401.61 675 1401.61C675 1401.61 181.5 1135.9 181.5 852.47V374.184L675 161.613Z" fill="#059669"/>
<path opacity="0.9" d="M425.5 1065.61C454.219 1065.61 477.5 1042.33 477.5 1013.61C477.5 984.894 454.219 961.613 425.5 961.613C396.781 961.613 373.5 984.894 373.5 1013.61C373.5 1042.33 396.781 1065.61 425.5 1065.61Z" fill="white"/>
<path opacity="0.7" d="M605 1065.61C633.995 1065.61 657.5 1042.33 657.5 1013.61C657.5 984.894 633.995 961.613 605 961.613C576.005 961.613 552.5 984.894 552.5 1013.61C552.5 1042.33 576.005 1065.61 605 1065.61Z" fill="white"/>
<path opacity="0.5" d="M778.5 1065.61C807.219 1065.61 830.5 1042.33 830.5 1013.61C830.5 984.894 807.219 961.613 778.5 961.613C749.781 961.613 726.5 984.894 726.5 1013.61C726.5 1042.33 749.781 1065.61 778.5 1065.61Z" fill="white"/>
<path opacity="0.5" d="M924.5 1065.61C953.219 1065.61 976.5 1042.33 976.5 1013.61C976.5 984.894 953.219 961.613 924.5 961.613C895.781 961.613 872.5 984.894 872.5 1013.61C872.5 1042.33 895.781 1065.61 924.5 1065.61Z" fill="white" fill-opacity="0.5"/>
<path fill-rule="evenodd" clip-rule="evenodd" d="M688.395 439.359C672.727 436.608 656.588 439.362 642.728 447.152C628.868 454.941 618.145 467.283 612.387 482.075C606.63 496.867 606.193 513.193 611.152 528.27C616.111 543.348 626.158 556.243 639.582 564.758C644.703 568.016 648.319 573.168 649.633 579.083C650.948 584.997 649.855 591.191 646.594 596.302L556.715 737.176C561.382 746.098 562.968 756.307 561.225 766.219C559.483 776.131 554.51 785.193 547.078 791.999C539.646 798.805 530.17 802.975 520.12 803.862C510.07 804.749 500.008 802.303 491.493 796.905C482.978 791.506 476.487 783.456 473.027 774.003C469.567 764.55 469.33 754.222 472.354 744.622C475.378 735.021 481.494 726.683 489.753 720.903C498.011 715.122 507.952 712.221 518.032 712.649L596.865 589.102C582.644 575.399 572.22 558.258 566.606 539.346C560.993 520.435 560.382 500.396 564.833 481.179C569.283 461.962 578.644 444.221 592.004 429.681C605.364 415.141 622.27 404.297 641.076 398.204C659.882 392.111 679.949 390.975 699.326 394.908C718.702 398.841 736.729 407.709 751.652 420.648C766.575 433.588 777.887 450.16 784.487 468.751C791.088 487.343 792.753 507.322 789.32 526.745C788.796 529.702 787.694 532.527 786.076 535.059C784.457 537.59 782.355 539.78 779.889 541.501C777.422 543.222 774.64 544.442 771.701 545.091C768.762 545.74 765.724 545.805 762.759 545.283C759.795 544.761 756.963 543.661 754.425 542.047C751.886 540.433 749.692 538.336 747.966 535.876C746.24 533.416 745.017 530.641 744.366 527.71C743.716 524.778 743.65 521.747 744.174 518.791C747.338 500.883 743.241 482.455 732.786 467.559C722.33 452.664 706.347 442.52 688.395 439.359ZM630.644 506.882C630.65 499.955 632.233 493.12 635.274 486.893C638.316 480.666 642.736 475.21 648.201 470.936C653.667 466.663 660.034 463.684 666.823 462.225C673.611 460.766 680.644 460.864 687.389 462.513C694.133 464.162 700.414 467.318 705.757 471.743C711.1 476.168 715.365 481.746 718.23 488.056C721.094 494.366 722.484 501.243 722.294 508.167C722.104 515.091 720.339 521.881 717.132 528.025L795.966 651.573C814.825 644.374 835.257 642.275 855.192 645.488C875.127 648.7 893.856 657.11 909.484 669.866C925.111 682.622 937.082 699.271 944.182 718.126C951.283 736.981 953.262 757.373 949.919 777.237C946.575 797.101 938.029 815.73 925.144 831.239C912.259 846.747 895.495 858.584 876.547 865.551C857.6 872.517 837.144 874.366 817.251 870.909C797.357 867.452 778.732 858.812 763.263 845.866C758.752 841.928 755.967 836.384 755.506 830.422C755.045 824.46 756.944 818.556 760.797 813.974C764.649 809.393 770.148 806.5 776.114 805.915C782.081 805.331 788.039 807.101 792.711 810.847C802.445 818.987 814.249 824.278 826.813 826.133C839.378 827.989 852.212 826.336 863.893 821.359C875.573 816.381 885.643 808.274 892.984 797.935C900.326 787.597 904.653 775.432 905.485 762.79C906.317 750.148 903.621 737.523 897.697 726.316C891.773 715.11 882.852 705.759 871.924 699.301C860.996 692.844 848.488 689.532 835.788 689.734C823.088 689.935 810.692 693.642 799.976 700.443C794.849 703.694 788.637 704.78 782.707 703.464C776.777 702.148 771.613 698.538 768.351 693.426L678.449 552.552C672.27 552.817 666.101 551.832 660.314 549.657C654.527 547.481 649.241 544.16 644.774 539.893C640.308 535.626 636.754 530.502 634.325 524.829C631.897 519.155 630.645 513.05 630.644 506.882ZM506.253 664.602C508.326 670.297 508.047 676.581 505.477 682.072C502.907 687.563 498.257 691.811 492.548 693.883C480.732 698.177 470.323 705.622 462.455 715.406C454.586 725.191 449.558 736.942 447.92 749.378C446.281 761.815 448.094 774.462 453.161 785.943C458.228 797.423 466.355 807.297 476.657 814.491C486.96 821.684 499.043 825.921 511.592 826.741C524.141 827.561 536.675 824.931 547.83 819.139C558.985 813.347 568.333 804.613 574.858 793.89C581.382 783.166 584.833 770.863 584.834 758.32C584.834 752.257 587.248 746.443 591.546 742.157C595.844 737.87 601.673 735.462 607.751 735.462H797.18C802.225 726.746 810.012 719.935 819.333 716.083C828.655 712.232 838.99 711.557 848.736 714.161C858.481 716.766 867.093 722.505 873.235 730.489C879.377 738.473 882.707 748.256 882.707 758.32C882.707 768.383 879.377 778.166 873.235 786.15C867.093 794.134 858.481 799.873 848.736 802.478C838.99 805.083 828.655 804.407 819.333 800.556C810.012 796.704 802.225 789.893 797.18 781.178H628.353C624.357 800.706 615.31 818.853 602.111 833.817C588.911 848.781 572.018 860.042 553.107 866.482C534.196 872.922 513.926 874.318 494.307 870.53C474.689 866.742 456.405 857.902 441.27 844.889C426.134 831.875 414.674 815.14 408.026 796.344C401.379 777.548 399.775 757.344 403.374 737.739C406.973 718.133 415.649 699.808 428.542 684.58C441.436 669.353 458.097 657.753 476.873 650.933C482.583 648.856 488.887 649.128 494.396 651.687C499.906 654.246 504.171 658.906 506.253 664.602Z" fill="white"/>
</svg>
